HIERARCHY
ROOT Hips
{
	OFFSET 0.000000 91.384300 0.000000
	CHANNELS 6 Xposition Yposition Zposition Xrotation Yrotation Zrotation
	JOINT LeftUpLeg
	{
		OFFSET 9.077000 -4.133000 1.997000
		CHANNELS 3 Xrotation Yrotation Zrotation
		JOINT LeftLeg
		{
			OFFSET -0.837700 -38.099998 -0.644600
			CHANNELS 3 Xrotation Yrotation Zrotation
			JOINT LeftFoot
			{
				OFFSET -2.286000 -39.700100 -5.944000
				CHANNELS 3 Xrotation Yrotation Zrotation
				JOINT LeftToeBase
				{
					OFFSET 0.765600 -9.713000 12.380000
					CHANNELS 3 Xrotation Yrotation Zrotation
					End Site
					{
						OFFSET 0 0 0
					}
				}
			}
		}
	}
	JOINT RightUpLeg
	{
		OFFSET -9.077000 -4.133000 1.997000
		CHANNELS 3 Xrotation Yrotation Zrotation
		JOINT RightLeg
		{
			OFFSET 0.838700 -38.100201 -0.635000
			CHANNELS 3 Xrotation Yrotation Zrotation
			JOINT RightFoot
			{
				OFFSET 2.286000 -39.700001 -5.944000
				CHANNELS 3 Xrotation Yrotation Zrotation
				JOINT RightToeBase
				{
					OFFSET -0.765600 -9.713000 12.380000
					CHANNELS 3 Xrotation Yrotation Zrotation
					End Site
					{
						OFFSET 0 0 0
					}
				}
			}
		}
	}
	JOINT Spine
	{
		OFFSET 0.000000 4.991000 -1.131000
		CHANNELS 3 Xrotation Yrotation Zrotation
		JOINT Spine1
		{
			OFFSET 0.000000 5.519000 1.053000
			CHANNELS 3 Xrotation Yrotation Zrotation
			JOINT Spine2
			{
				OFFSET 0.000000 5.886000 0.113000
				CHANNELS 3 Xrotation Yrotation Zrotation
				JOINT Spine3
				{
					OFFSET 0.000000 6.393000 -0.435800
					CHANNELS 3 Xrotation Yrotation Zrotation
					JOINT Spine4
					{
						OFFSET 0.000000 7.474000 -1.480000
						CHANNELS 3 Xrotation Yrotation Zrotation
						JOINT Spine5
						{
							OFFSET 0.000000 9.333000 -0.898600
							CHANNELS 3 Xrotation Yrotation Zrotation
							JOINT Spine6
							{
								OFFSET 0.000000 10.370000 1.550000
								CHANNELS 3 Xrotation Yrotation Zrotation
								JOINT LeftShoulder
								{
									OFFSET 1.212000 -7.475000 7.403000
									CHANNELS 3 Xrotation Yrotation Zrotation
									JOINT LeftArm
									{
										OFFSET 12.730000 3.193000 -3.212000
										CHANNELS 3 Xrotation Yrotation Zrotation
										JOINT LeftForeArm
										{
											OFFSET 28.700001 0.058700 0.134700
											CHANNELS 3 Xrotation Yrotation Zrotation
											JOINT LeftHand
											{
												OFFSET 23.809999 0.048800 0.111700
												CHANNELS 3 Xrotation Yrotation Zrotation
												JOINT LeftHandThumb1
												{
													OFFSET 0.342600 -0.877100 1.299200
													CHANNELS 3 Xrotation Yrotation Zrotation
													JOINT LeftHandThumb2
													{
														OFFSET 3.552400 0.035400 4.233400
														CHANNELS 3 Xrotation Yrotation Zrotation
														JOINT LeftHandThumb3
														{
															OFFSET 2.296600 0.022900 2.736900
															CHANNELS 3 Xrotation Yrotation Zrotation
															End Site
															{
																OFFSET 0 0 0
															}
														}
													}
												}
												JOINT LeftHandIndex1
												{
													OFFSET 8.341500 -0.231800 2.230700
													CHANNELS 3 Xrotation Yrotation Zrotation
													JOINT LeftHandIndex2
													{
														OFFSET 4.365700 0.000000 0.000000
														CHANNELS 3 Xrotation Yrotation Zrotation
														JOINT LeftHandIndex3
														{
															OFFSET 2.594000 0.000000 0.000000
															CHANNELS 3 Xrotation Yrotation Zrotation
															End Site
															{
																OFFSET 0 0 0
															}
														}
													}
												}
												JOINT LeftHandMiddle1
												{
													OFFSET 8.432300 0.000000 0.000000
													CHANNELS 3 Xrotation Yrotation Zrotation
													JOINT LeftHandMiddle2
													{
														OFFSET 4.555200 0.000000 0.000000
														CHANNELS 3 Xrotation Yrotation Zrotation
														JOINT LeftHandMiddle3
														{
															OFFSET 2.865300 0.000000 0.000000
															CHANNELS 3 Xrotation Yrotation Zrotation
															End Site
															{
																OFFSET 0 0 0
															}
														}
													}
												}
												JOINT LeftHandRing1
												{
													OFFSET 7.689400 -0.454700 -1.530700
													CHANNELS 3 Xrotation Yrotation Zrotation
													JOINT LeftHandRing2
													{
														OFFSET 4.269500 0.000000 0.000000
														CHANNELS 3 Xrotation Yrotation Zrotation
														JOINT LeftHandRing3
														{
															OFFSET 2.807300 0.000000 0.000000
															CHANNELS 3 Xrotation Yrotation Zrotation
															End Site
															{
																OFFSET 0 0 0
															}
														}
													}
												}
												JOINT LeftHandPinky1
												{
													OFFSET 6.579800 -1.192300 -2.874700
													CHANNELS 3 Xrotation Yrotation Zrotation
													JOINT LeftHandPinky2
													{
														OFFSET 3.404900 0.000000 0.000000
														CHANNELS 3 Xrotation Yrotation Zrotation
														JOINT LeftHandPinky3
														{
															OFFSET 2.167000 0.000000 0.000000
															CHANNELS 3 Xrotation Yrotation Zrotation
															End Site
															{
																OFFSET 0 0 0
															}
														}
													}
												}
											}
										}
									}
								}
								JOINT RightShoulder
								{
									OFFSET -1.212000 -7.475000 7.403000
									CHANNELS 3 Xrotation Yrotation Zrotation
									JOINT RightArm
									{
										OFFSET -12.730000 3.193000 -3.212000
										CHANNELS 3 Xrotation Yrotation Zrotation
										JOINT RightForeArm
										{
											OFFSET -28.700001 0.058900 0.134800
											CHANNELS 3 Xrotation Yrotation Zrotation
											JOINT RightHand
											{
												OFFSET -23.809999 0.048800 0.111800
												CHANNELS 3 Xrotation Yrotation Zrotation
												JOINT RightHandThumb1
												{
													OFFSET -0.331700 -0.854900 1.465200
													CHANNELS 3 Xrotation Yrotation Zrotation
													JOINT RightHandThumb2
													{
														OFFSET -3.394400 0.033800 4.045100
														CHANNELS 3 Xrotation Yrotation Zrotation
														JOINT RightHandThumb3
														{
															OFFSET -2.228600 0.022200 2.655900
															CHANNELS 3 Xrotation Yrotation Zrotation
															End Site
															{
																OFFSET 0 0 0
															}
														}
													}
												}
												JOINT RightHandIndex1
												{
													OFFSET -8.067200 -0.148300 2.256000
													CHANNELS 3 Xrotation Yrotation Zrotation
													JOINT RightHandIndex2
													{
														OFFSET -4.244400 0.000000 0.000000
														CHANNELS 3 Xrotation Yrotation Zrotation
														JOINT RightHandIndex3
														{
															OFFSET -2.518100 0.000000 0.000000
															CHANNELS 3 Xrotation Yrotation Zrotation
															End Site
															{
																OFFSET 0 0 0
															}
														}
													}
												}
												JOINT RightHandMiddle1
												{
													OFFSET -8.141100 0.000000 0.000000
													CHANNELS 3 Xrotation Yrotation Zrotation
													JOINT RightHandMiddle2
													{
														OFFSET -4.416900 0.000000 0.000000
														CHANNELS 3 Xrotation Yrotation Zrotation
														JOINT RightHandMiddle3
														{
															OFFSET -2.814700 0.000000 0.000000
															CHANNELS 3 Xrotation Yrotation Zrotation
															End Site
															{
																OFFSET 0 0 0
															}
														}
													}
												}
												JOINT RightHandRing1
												{
													OFFSET -7.423600 -0.524800 -1.560900
													CHANNELS 3 Xrotation Yrotation Zrotation
													JOINT RightHandRing2
													{
														OFFSET -4.128000 0.000000 0.000000
														CHANNELS 3 Xrotation Yrotation Zrotation
														JOINT RightHandRing3
														{
															OFFSET -2.724700 0.000000 0.000000
															CHANNELS 3 Xrotation Yrotation Zrotation
															End Site
															{
																OFFSET 0 0 0
															}
														}
													}
												}
												JOINT RightHandPinky1
												{
													OFFSET -6.307900 -1.287900 -2.847400
													CHANNELS 3 Xrotation Yrotation Zrotation
													JOINT RightHandPinky2
													{
														OFFSET -3.314800 0.000000 0.000000
														CHANNELS 3 Xrotation Yrotation Zrotation
														JOINT RightHandPinky3
														{
															OFFSET -2.102600 0.000000 0.000000
															CHANNELS 3 Xrotation Yrotation Zrotation
															End Site
															{
																OFFSET 0 0 0
															}
														}
													}
												}
											}
										}
									}
								}
								JOINT Neck
								{
									OFFSET 0.000000 4.703000 0.702900
									CHANNELS 3 Xrotation Yrotation Zrotation
									JOINT Neck1
									{
										OFFSET 0.000000 4.737000 0.414500
										CHANNELS 3 Xrotation Yrotation Zrotation
										JOINT Head
										{
											OFFSET 0.000000 4.747000 0.751800
											CHANNELS 3 Xrotation Yrotation Zrotation
											End Site
											{
												OFFSET 0 0 0
											}
										}
									}
								}
							}
						}
					}
				}
			}
		}
	}
}
MOTION
Frames: 4
Frame Time: 1.00000000
49.264153 92.927567 434.132935 -6.597868 5.072934 1.707623 -4.484056 -10.119491 -6.699101 7.979926 -0.452681 -0.035715 -1.642048 -1.735640 20.446251 0.000000 0.000000 -0.000000 -11.395532 -3.922282 -6.715735 23.908815 1.346003 -0.092479 -7.940883 17.256357 -11.070161 0.000000 0.000000 0.000000 3.577616 -0.978548 -0.814876 0.367724 -0.478245 0.352807 0.369786 -0.474083 0.356225 0.373224 -0.469912 0.359651 0.373967 -0.465668 0.362979 0.376152 -0.461415 0.366270 0.378113 -0.457091 0.369406 0.409369 -0.260283 3.032921 -10.362642 -9.001335 -72.864319 5.362210 -34.236073 3.106955 0.203041 -1.357551 6.465991 14.314492 25.256952 -38.496525 0.171706 7.057735 -0.291627 -0.134433 10.274688 -0.058960 3.805490 6.031284 -35.283730 1.510383 2.855111 -50.659630 0.363878 1.469028 -23.093037 2.054324 3.293442 -33.694927 -0.249388 -0.239260 -39.607857 -0.112452 -0.130428 -23.331781 -10.672162 13.984507 -28.992065 0.468459 3.526717 -41.920822 -0.116984 1.452142 -16.614841 -20.202869 19.593939 -15.408932 -0.497538 3.820678 -33.752983 -0.591520 2.713209 -24.230101 3.317088 0.131279 -6.891184 13.888347 14.991790 77.945915 -8.073701 13.417974 1.795635 -2.067971 -11.786877 -10.591743 7.443231 -25.949251 36.345222 -3.965123 -3.683148 -3.569403 0.122555 -8.947279 0.069664 2.127063 -1.874520 30.630333 0.188035 0.185266 38.186741 0.094509 0.064602 15.444836 1.647426 -2.224648 32.012707 0.055812 0.242829 30.131876 0.037698 0.180046 19.159655 -8.225420 -11.468069 30.566889 0.114307 -0.171179 33.874763 0.016063 -0.073987 14.669405 -13.886744 -23.507607 21.686024 -0.001364 0.206615 28.220858 0.001944 0.152679 19.141619 1.399896 0.103630 0.441178 1.399896 0.103630 0.441178 9.209253 0.335295 -5.405567 
49.055630 92.950684 435.497742 -6.462895 5.350953 1.853723 -4.143964 -10.209479 -6.706114 7.744808 -0.439274 -0.035400 -1.907653 -1.973360 20.368324 0.000000 0.000000 -0.000000 -10.955040 -3.786865 -6.724830 22.666994 1.277797 -0.074904 -7.833998 18.319260 -10.740503 0.000000 -0.000000 0.000000 3.528718 -1.031047 -0.939624 0.361539 -0.495072 0.344117 0.363813 -0.490937 0.347635 0.367154 -0.486794 0.351122 0.368481 -0.482565 0.354507 0.370912 -0.478292 0.357830 0.373085 -0.474022 0.361024 0.328709 -0.368220 3.113908 -11.084537 -8.461065 -72.997292 5.686056 -34.582417 3.319903 0.216474 -1.422269 6.623554 14.298128 25.258650 -38.492203 0.203494 7.049795 -0.321969 -0.134413 10.248380 -0.059087 3.799246 6.025682 -35.320030 1.508794 2.855048 -50.640598 0.362996 1.469173 -23.067457 2.039752 3.271843 -33.692101 -0.249027 -0.239351 -39.551620 -0.112413 -0.130462 -23.314575 -10.698450 13.943422 -28.961470 0.461373 3.513525 -41.763832 -0.117590 1.451722 -16.604357 -20.216961 19.583111 -15.448122 -0.500498 3.804657 -33.621090 -0.591650 2.703992 -24.153116 3.323796 -0.019029 -7.105034 14.276132 14.639448 78.117249 -8.057452 13.639245 1.821438 -2.061927 -11.719625 -10.619653 7.444547 -25.966396 36.330032 -3.997217 -3.634371 -3.594277 0.122530 -8.916508 0.069678 2.118336 -1.811290 30.635548 0.188213 0.185504 38.253941 0.094524 0.064580 15.431583 1.682473 -2.271600 32.092831 0.055238 0.242917 30.254835 0.037804 0.180023 19.125834 -8.201132 -11.470964 30.700871 0.114323 -0.171085 33.869274 0.015891 -0.073527 14.631583 -13.836972 -23.564545 21.862543 -0.001068 0.206616 28.138805 0.001984 0.152678 19.126310 1.403083 0.091815 0.453928 1.403083 0.091806 0.453928 9.276556 0.253217 -5.429497 
48.790241 92.934341 437.087555 -6.219720 5.917171 2.088174 -3.447076 -10.243173 -6.904975 7.391933 -0.419181 -0.035194 -2.519367 -2.251033 20.439386 0.000000 0.000000 -0.000000 -11.222048 -3.922211 -6.645098 23.318699 1.304752 -0.117426 -6.531663 19.146532 -11.654451 0.000000 0.000000 0.000000 3.473771 -1.116834 -1.133735 0.358266 -0.524437 0.341226 0.360929 -0.520217 0.344880 0.363988 -0.515912 0.348473 0.366367 -0.511557 0.351970 0.369207 -0.507181 0.355420 0.372081 -0.502787 0.358698 0.248148 -0.528363 3.126596 -11.674378 -8.642433 -73.649277 5.752678 -34.457272 3.373597 0.241380 -1.533849 6.999756 14.309389 25.259804 -38.502872 0.206508 7.084011 -0.324585 -0.134477 10.310534 -0.059186 3.821022 6.015828 -35.442467 1.519031 2.864965 -50.833935 0.364780 1.473836 -23.135582 2.016699 3.223856 -33.804123 -0.249568 -0.238445 -39.718025 -0.112674 -0.130237 -23.429377 -10.708398 13.884789 -29.077311 0.463729 3.517185 -41.812866 -0.116973 1.462621 -16.709534 -20.226673 19.561665 -15.564375 -0.501958 3.800313 -33.597717 -0.591555 2.704024 -24.150944 3.323772 -0.133213 -6.958353 13.845226 14.472936 77.914322 -8.138549 13.960395 1.883940 -2.051841 -11.658743 -10.622564 7.366181 -25.999453 36.281872 -4.040657 -3.533792 -3.628598 0.123103 -8.864551 0.069295 2.110760 -1.911358 30.451151 0.189333 0.185528 38.056221 0.094639 0.064410 15.329000 1.715052 -2.315241 32.164375 0.055149 0.243270 30.370573 0.036931 0.182589 19.113918 -8.158793 -11.364809 30.739092 0.113876 -0.171801 33.773430 0.016503 -0.075580 14.676693 -13.830973 -23.502148 21.921835 -0.000876 0.206617 28.085411 0.001732 0.152681 19.221195 1.385302 0.075704 0.483328 1.385301 0.075741 0.483327 9.107900 0.142985 -5.561765 
48.445534 92.951782 438.965332 -5.863657 6.719656 2.195681 -2.406173 -10.323721 -6.862938 6.721014 -0.380993 -0.034012 -3.165131 -2.789659 20.477840 0.000000 0.000000 0.000000 -12.087266 -4.319958 -6.484586 23.463251 1.309980 -0.129246 -5.582046 19.479809 -12.678675 0.000000 0.000000 0.000000 3.375152 -1.226065 -1.266853 0.341574 -0.572450 0.356702 0.344812 -0.568031 0.360529 0.348095 -0.563603 0.364402 0.351424 -0.559082 0.368497 0.354831 -0.554562 0.372178 0.358320 -0.550077 0.376037 0.116731 -0.778128 3.110028 -12.337025 -8.852902 -74.322800 5.820104 -34.738247 3.442342 0.269304 -1.641150 7.484387 14.293217 25.239254 -38.500553 0.213806 7.039655 -0.330708 -0.134605 10.331916 -0.059273 3.866462 6.020723 -35.589497 1.535657 2.879642 -51.132473 0.369449 1.481155 -23.246428 2.001347 3.181103 -33.973114 -0.250416 -0.237267 -39.953381 -0.112972 -0.129978 -23.560452 -10.695591 13.833911 -29.259026 0.471164 3.531525 -41.976528 -0.116002 1.475470 -16.847044 -20.225506 19.542122 -15.677553 -0.500984 3.803164 -33.614628 -0.592176 2.709768 -24.178740 3.424266 -0.371143 -6.621035 13.753687 14.216747 77.462723 -8.235005 14.323284 1.957461 -2.036612 -11.557021 -10.631159 7.216288 -26.046610 36.227760 -4.104149 -3.393369 -3.678750 0.123565 -8.811560 0.068898 2.088983 -2.104663 30.153606 0.190853 0.184944 37.689144 0.094804 0.064168 15.182164 1.732716 -2.343576 32.152596 0.055519 0.243492 30.372740 0.036227 0.184805 19.090656 -8.118352 -11.217014 30.702980 0.113330 -0.172588 33.647232 0.017319 -0.078317 14.742197 -13.858786 -23.361277 21.890083 -0.001019 0.206617 28.125231 0.001369 0.152685 19.357063 1.384760 0.049964 0.523353 1.384759 0.049973 0.523352 8.807136 -0.020323 -5.677738 
